<svg width="66" height="66" viewBox="0 0 66 66" fill="none" xmlns="http://www.w3.org/2000/svg">
<path d="M32.9999 0.193359C14.8814 0.193359 0.193359 14.8814 0.193359 32.9999C0.193359 51.1187 14.8814 65.8066 32.9999 65.8066C51.1187 65.8066 65.8066 51.1185 65.8066 32.9999C65.8066 14.8812 51.1187 0.193359 32.9999 0.193359ZM51.2425 32.6856C50.4213 33.507 49.3442 33.9176 48.2679 33.9176C47.1912 33.9176 46.1147 33.5072 45.2933 32.6856L37.1785 24.5706V52.5081C37.1785 54.8315 35.295 56.715 32.9717 56.715C30.6483 56.715 28.7648 54.8315 28.7648 52.5081V24.6274L20.7065 32.6856C19.8852 33.507 18.8082 33.9176 17.7319 33.9176C16.6552 33.9176 15.5787 33.507 14.7572 32.6856C13.1144 31.0427 13.1144 28.379 14.7572 26.7361L29.616 11.8777C29.6414 11.8442 29.6675 11.8114 29.6937 11.7787C29.7011 11.7694 29.7081 11.76 29.7155 11.7509C29.893 11.5343 30.0916 11.3357 30.3082 11.1584C30.3172 11.151 30.3264 11.1444 30.3352 11.1372C30.4338 11.0578 30.5357 10.9825 30.641 10.9123C30.6559 10.9023 30.671 10.8933 30.6858 10.8836C30.7866 10.8183 30.8901 10.7566 30.9966 10.6999C31.0129 10.6913 31.0293 10.6832 31.0453 10.6749C31.1519 10.6199 31.2605 10.5691 31.372 10.5234C31.3861 10.5176 31.4004 10.5124 31.4145 10.5066C31.5277 10.4613 31.6433 10.4207 31.7611 10.3853C31.7722 10.3817 31.7835 10.3789 31.7948 10.3756C31.9139 10.341 32.0347 10.311 32.158 10.2868C32.1679 10.2849 32.1776 10.2835 32.1874 10.2817C32.3098 10.2586 32.434 10.2403 32.5603 10.2279C32.5695 10.2269 32.5787 10.2265 32.5878 10.2258C32.7122 10.2145 32.838 10.2078 32.9651 10.2076C32.9695 10.2076 32.9741 10.2076 32.9785 10.2076C32.9886 10.2076 32.9985 10.2084 33.0085 10.2085C33.0369 10.2084 33.0653 10.2101 33.0937 10.2106C33.1503 10.2122 33.2068 10.2149 33.2627 10.2188C34.2598 10.274 35.2412 10.6781 36.0029 11.4397C36.1355 11.5724 36.2535 11.7138 36.3648 11.8586L51.2422 26.7361C52.8854 28.379 52.8854 31.0427 51.2425 32.6856Z" fill="#444444"/>
</svg>
